<?xml version="1.0" encoding="UTF-8" standalone="no"?>
<!-- Generator: Adobe Illustrator 16.0.0, SVG Export Plug-In . SVG Version: 6.00 Build 0)  -->

<svg
   xmlns:dc="http://purl.org/dc/elements/1.1/"
   xmlns:cc="http://creativecommons.org/ns#"
   xmlns:rdf="http://www.w3.org/1999/02/22-rdf-syntax-ns#"
   xmlns:svg="http://www.w3.org/2000/svg"
   xmlns="http://www.w3.org/2000/svg"
   xmlns:sodipodi="http://sodipodi.sourceforge.net/DTD/sodipodi-0.dtd"
   xmlns:inkscape="http://www.inkscape.org/namespaces/inkscape"
   version="1.1"
   id="Layer_1"
   x="0px"
   y="0px"
   width="536.83197"
   height="536.83197"
   viewBox="13.584 12.584 536.832 536.832"
   enable-background="new 13.584 12.584 536.832 536.832"
   xml:space="preserve"
   inkscape:version="0.91 r13725"
   sodipodi:docname="icon-people-square.svg"><metadata
     id="metadata17"><rdf:RDF><cc:Work
         rdf:about=""><dc:format>image/svg+xml</dc:format><dc:type
           rdf:resource="http://purl.org/dc/dcmitype/StillImage" /><dc:title></dc:title></cc:Work></rdf:RDF></metadata><defs
     id="defs15" /><sodipodi:namedview
     pagecolor="#ffffff"
     bordercolor="#666666"
     borderopacity="1"
     objecttolerance="10"
     gridtolerance="10"
     guidetolerance="10"
     inkscape:pageopacity="0"
     inkscape:pageshadow="2"
     inkscape:window-width="1920"
     inkscape:window-height="1027"
     id="namedview13"
     showgrid="false"
     units="px"
     inkscape:zoom="1.2434222"
     inkscape:cx="346.37894"
     inkscape:cy="269.6928"
     inkscape:window-x="1016"
     inkscape:window-y="-8"
     inkscape:window-maximized="1"
     inkscape:current-layer="Layer_1" /><g
     id="g3"><g
       id="g5"><rect
         id="rect7"
         width="536.83197"
         height="536.83197"
         style="fill:#5e5e5e"
         x="13.584"
         y="12.584" /></g><g
       enable-background="new    "
       id="g9"><path
         d="m 315.408,300.584 c 9.792,3.456 18.72,8.352 26.783,14.4 8.064,6.048 14.688,13.248 20.16,21.6 5.473,8.352 9.793,16.992 12.672,26.784 2.881,9.792 4.608,19.584 4.608,30.239 l -13.823,0 c 0,-12.096 -2.017,-23.039 -6.336,-33.407 -4.32,-10.368 -10.08,-19.296 -17.568,-26.784 -7.488,-7.488 -16.416,-13.536 -26.496,-17.855 -10.08,-4.32 -21.312,-6.337 -33.12,-6.337 -7.776,0 -15.264,0.864 -22.464,2.88 -7.2,2.017 -13.824,4.896 -20.16,8.353 -6.336,3.744 -11.808,8.063 -16.992,12.96 -5.184,5.184 -9.504,10.656 -12.96,16.992 -3.456,6.336 -6.336,12.96 -8.352,20.16 -2.016,7.199 -2.88,14.688 -2.88,22.752 l -13.824,0 c 0,-10.656 1.44,-20.736 4.608,-30.24 3.168,-9.504 7.488,-18.432 12.96,-26.496 5.472,-8.063 12.384,-15.264 20.448,-21.312 8.064,-6.048 16.704,-10.944 26.784,-14.688 -5.76,-3.168 -10.656,-6.912 -15.264,-11.232 -4.608,-4.319 -8.352,-9.216 -11.52,-14.688 -3.168,-5.472 -5.472,-11.232 -7.2,-17.28 -1.728,-6.048 -2.592,-12.384 -2.592,-18.72 0,-9.792 1.728,-18.72 5.472,-27.359 3.744,-8.641 8.64,-15.841 14.976,-22.465 6.336,-6.336 13.824,-11.52 22.176,-14.976 8.352,-3.744 17.568,-5.472 27.072,-5.472 9.792,0 18.72,1.728 27.072,5.472 8.352,3.744 15.84,8.64 22.176,14.976 6.336,6.336 11.232,13.824 14.976,22.465 3.744,8.64 5.472,17.567 5.472,27.359 0,6.336 -0.863,12.672 -2.592,18.72 -1.728,6.048 -4.031,11.809 -7.199,16.992 -3.168,5.473 -6.912,10.368 -11.521,14.688 -4.896,4.895 -10.08,8.639 -15.552,11.519 z m -89.28,-61.632 c 0,7.776 1.44,14.976 4.32,21.888 2.88,6.912 6.912,12.672 12.096,17.856 5.184,5.184 10.944,9.216 17.856,12.096 6.624,2.88 14.112,4.32 21.6,4.32 7.775,0 14.977,-1.44 21.6,-4.32 6.625,-2.88 12.672,-6.912 17.856,-12.096 5.185,-5.185 8.928,-10.944 12.096,-17.856 2.88,-6.912 4.32,-14.112 4.32,-21.888 0,-7.776 -1.44,-14.976 -4.32,-21.888 -2.88,-6.912 -6.911,-12.672 -12.096,-17.856 -5.185,-5.184 -10.944,-9.216 -17.856,-12.096 -6.623,-2.88 -14.111,-4.32 -21.6,-4.32 -7.776,0 -14.976,1.44 -21.6,4.32 -6.624,2.88 -12.672,6.912 -17.856,12.096 -5.184,5.185 -8.928,10.944 -12.096,17.856 -2.88,6.624 -4.32,14.112 -4.32,21.888 z"
         id="path11"
         inkscape:connector-curvature="0"
         style="fill:#e3e3e3" /></g></g></svg>